<?xml version="1.0" encoding="utf-8"?>
<!-- Generated by IcoMoon.io -->
<svg version="1.1" xmlns="http://www.w3.org/2000/svg" xmlns:xlink="http://www.w3.org/1999/xlink" width="752" height="32" viewBox="0 0 752 32">
<svg id="icon-logoade-with-insMind-ChatGPT-Image-10--2025-" width="32" height="32" viewBox="0 0 32 32" x="0" y="0">
<path d="M0 0h32v32h-32v-32z"></path>
</svg>
<svg id="icon-arrow_left" width="19" height="32" viewBox="0 0 19 32" x="48" y="0">
<path d="M18.466 31.296c0.47-0.451 0.734-1.063 0.734-1.701s-0.264-1.25-0.734-1.701l-12.413-11.908 12.413-11.908c0.457-0.454 0.71-1.061 0.704-1.692s-0.269-1.234-0.734-1.68c-0.465-0.446-1.094-0.699-1.751-0.705s-1.291 0.237-1.764 0.675l-14.186 13.609c-0.47 0.451-0.734 1.063-0.734 1.701s0.264 1.25 0.734 1.701l14.186 13.609c0.47 0.451 1.108 0.704 1.773 0.704s1.303-0.253 1.773-0.704z"></path>
</svg>
<svg id="icon-arrow_up" width="32" height="32" viewBox="0 0 32 32" x="96" y="0">
<path d="M3.254 23.388c0.376 0.392 0.886 0.612 1.417 0.612s1.041-0.22 1.417-0.612l9.924-10.344 9.924 10.344c0.378 0.381 0.885 0.591 1.41 0.587s1.028-0.225 1.4-0.612 0.583-0.912 0.587-1.459c0.005-0.548-0.197-1.076-0.563-1.47l-11.341-11.822c-0.376-0.392-0.886-0.612-1.417-0.612s-1.041 0.22-1.417 0.612l-11.341 11.822c-0.376 0.392-0.587 0.923-0.587 1.477s0.211 1.085 0.587 1.477z"></path>
</svg>
<svg id="icon-twitter" width="32" height="32" viewBox="0 0 32 32" x="144" y="0">
<path d="M23.373 3.636h4.127l-9.015 10.473 10.606 14.254h-8.303l-6.508-8.643-7.438 8.643h-4.131l9.641-11.206-10.17-13.519h8.515l5.874 7.899 6.802-7.901zM21.922 25.854h2.287l-14.762-19.838h-2.453l14.927 19.838z"></path>
</svg>
<svg id="icon-instagram" width="32" height="32" viewBox="0 0 32 32" x="192" y="0">
<path d="M10.713 2.909h11.302c4.305 0 7.804 3.498 7.804 7.804v11.302c0 2.070-0.822 4.055-2.286 5.518s-3.448 2.286-5.518 2.286h-11.302c-4.305 0-7.804-3.498-7.804-7.804v-11.302c0-2.070 0.822-4.055 2.286-5.518s3.448-2.286 5.518-2.286zM10.444 5.6c-1.285 0-2.517 0.51-3.425 1.419s-1.419 2.14-1.419 3.425v11.84c0 2.677 2.166 4.844 4.844 4.844h11.84c1.285 0 2.517-0.51 3.425-1.419s1.419-2.14 1.419-3.425v-11.84c0-2.677-2.166-4.844-4.844-4.844h-11.84zM23.427 7.618c0.446 0 0.874 0.177 1.189 0.493s0.493 0.743 0.493 1.189c0 0.446-0.177 0.874-0.493 1.189s-0.743 0.493-1.189 0.493c-0.446 0-0.874-0.177-1.189-0.493s-0.493-0.743-0.493-1.189c0-0.446 0.177-0.874 0.493-1.189s0.743-0.493 1.189-0.493zM16.364 9.636c1.784 0 3.495 0.709 4.757 1.97s1.97 2.973 1.97 4.757c0 1.784-0.709 3.495-1.97 4.757s-2.973 1.97-4.757 1.97c-1.784 0-3.495-0.709-4.757-1.97s-1.97-2.973-1.97-4.757c0-1.784 0.709-3.495 1.97-4.757s2.973-1.97 4.757-1.97zM16.364 12.327c-1.071 0-2.097 0.425-2.854 1.182s-1.182 1.784-1.182 2.854 0.425 2.097 1.182 2.854c0.757 0.757 1.784 1.182 2.854 1.182s2.097-0.425 2.854-1.182c0.757-0.757 1.182-1.784 1.182-2.854s-0.425-2.097-1.182-2.854c-0.757-0.757-1.784-1.182-2.854-1.182z"></path>
</svg>
<svg id="icon-facebook" width="32" height="32" viewBox="0 0 32 32" x="240" y="0">
<path d="M29.818 16.397c0-7.446-6.028-13.488-13.455-13.488s-13.455 6.043-13.455 13.488c0 6.528 4.628 11.964 10.764 13.218v-9.172h-2.691v-4.046h2.691v-3.372c0-2.603 2.112-4.721 4.709-4.721h3.364v4.047h-2.691c-0.74 0-1.345 0.607-1.345 1.349v2.698h4.036v4.046h-4.036v9.374c6.795-0.674 12.109-6.42 12.109-13.421z"></path>
</svg>
<svg id="icon-burger" width="32" height="32" viewBox="0 0 32 32" x="288" y="0">
<path d="M5.333 8c0-0.354 0.14-0.693 0.391-0.943s0.589-0.391 0.943-0.391h18.667c0.354 0 0.693 0.14 0.943 0.391s0.39 0.589 0.39 0.943c0 0.354-0.14 0.693-0.39 0.943s-0.589 0.391-0.943 0.391h-18.667c-0.354 0-0.693-0.14-0.943-0.391s-0.391-0.589-0.391-0.943zM5.333 16c0-0.354 0.14-0.693 0.391-0.943s0.589-0.39 0.943-0.39h18.667c0.354 0 0.693 0.14 0.943 0.39s0.39 0.589 0.39 0.943c0 0.354-0.14 0.693-0.39 0.943s-0.589 0.39-0.943 0.39h-18.667c-0.354 0-0.693-0.141-0.943-0.39s-0.391-0.589-0.391-0.943zM6.667 22.667c-0.354 0-0.693 0.14-0.943 0.39s-0.391 0.589-0.391 0.943c0 0.354 0.14 0.693 0.391 0.943s0.589 0.39 0.943 0.39h18.667c0.354 0 0.693-0.141 0.943-0.39s0.39-0.589 0.39-0.943-0.14-0.693-0.39-0.943c-0.25-0.25-0.589-0.39-0.943-0.39h-18.667z"></path>
</svg>
<svg id="icon-close" width="32" height="32" viewBox="0 0 32 32" x="336" y="0">
<path d="M7.293 7.293c0.188-0.187 0.442-0.292 0.707-0.292s0.519 0.105 0.707 0.292l16 16c0.098 0.092 0.177 0.202 0.232 0.325s0.084 0.255 0.087 0.389c0.002 0.134-0.022 0.268-0.073 0.392s-0.125 0.238-0.22 0.333-0.208 0.17-0.333 0.22c-0.125 0.050-0.258 0.075-0.392 0.073s-0.267-0.032-0.389-0.086c-0.123-0.055-0.233-0.134-0.325-0.232l-16-16c-0.187-0.188-0.292-0.442-0.292-0.707s0.105-0.519 0.292-0.707z"></path>
<path d="M24.706 7.293c0.187 0.188 0.292 0.442 0.292 0.707s-0.105 0.519-0.292 0.707l-16 16c-0.19 0.177-0.44 0.273-0.699 0.268s-0.506-0.11-0.689-0.293c-0.183-0.183-0.288-0.43-0.293-0.689s0.092-0.51 0.268-0.699l16-16c0.187-0.187 0.442-0.292 0.707-0.292s0.519 0.105 0.707 0.292z"></path>
</svg>
<svg id="icon-google-play" width="29" height="32" viewBox="0 0 29 32" x="384" y="0">
<path fill="#ea4335" d="M13.399 15.255l-13.273 14.038c0.149 0.533 0.417 1.025 0.783 1.438s0.821 0.735 1.33 0.944c0.509 0.208 1.058 0.296 1.605 0.257s1.079-0.204 1.554-0.482l14.935-8.586-6.934-7.608z"></path>
<path fill="#fbbc04" d="M26.82 12.869l-6.458-3.734-7.27 6.44 7.299 7.268 6.409-3.694c0.568-0.3 1.043-0.751 1.375-1.305s0.507-1.188 0.507-1.835-0.175-1.282-0.507-1.835c-0.332-0.553-0.807-1.005-1.375-1.305l0.020 0z"></path>
<path fill="#4285f4" d="M0.125 2.656c-0.080 0.299-0.12 0.608-0.119 0.918v24.8c0.001 0.31 0.041 0.619 0.119 0.919l13.728-13.678-13.728-12.959z"></path>
<path fill="#22a044" d="M13.498 15.974l6.864-6.839-14.915-8.626c-0.561-0.332-1.199-0.507-1.85-0.509-1.614-0.003-3.033 1.078-3.472 2.646l13.372 13.329z"></path>
</svg>
</svg>
