<svg xmlns="http://www.w3.org/2000/svg" aria-hidden="true" style="position:absolute;width:0;height:0;overflow:hidden">
  <defs>
    <symbol id="icon-facebook" viewBox="0 0 32 32">
      <path d="M32 16.04C32 7.186 24.832 0 16 0S0 7.186 0 16.04c0 7.763 5.504 14.228 12.8 15.719V20.852H9.6V16.04h3.2v-4.01c0-3.096 2.512-5.614 5.6-5.614h4v4.812h-3.2c-.88 0-1.6.722-1.6 1.604v3.208h4.8v4.812h-4.8V32c8.08-.802 14.4-7.635 14.4-15.96z"/>
    </symbol>
    <symbol id="icon-instagram" viewBox="0 0 32 32">
      <path d="M9.28 0h13.44C27.84 0 32 4.16 32 9.28v13.44A9.281 9.281 0 0 1 22.72 32H9.28C4.16 32 0 27.84 0 22.72V9.28A9.281 9.281 0 0 1 9.28 0zm-.32 3.2A5.76 5.76 0 0 0 3.2 8.96v14.08a5.756 5.756 0 0 0 5.76 5.76h14.08a5.76 5.76 0 0 0 5.76-5.76V8.96a5.756 5.756 0 0 0-5.76-5.76H8.96zM24.4 5.6a2 2 0 1 1-.001 4.001A2 2 0 0 1 24.4 5.6zM16 8a8 8 0 1 1 0 16 8 8 0 0 1 0-16zm0 3.2a4.8 4.8 0 1 0 0 9.6 4.8 4.8 0 0 0 0-9.6z"/>
    </symbol>
    <symbol id="icon-twit" viewBox="0 0 36 32">
      <path d="M26.369 0h4.656l-10.17 11.816 11.966 16.081h-9.368l-7.343-9.751-8.392 9.751h-4.66l10.877-12.643L2.461.001h9.606l6.627 8.911 7.674-8.914zm-1.637 25.066h2.581L10.659 2.685H7.892l16.841 22.381z"/>
    </symbol>
  </defs>
</svg>
