<svg width="28" height="28" viewBox="0 0 28 28" fill="none" xmlns="http://www.w3.org/2000/svg">
<path d="M4.66675 6.99999C4.66675 6.69058 4.78966 6.39383 5.00846 6.17504C5.22725 5.95624 5.524 5.83333 5.83341 5.83333H22.1667C22.4762 5.83333 22.7729 5.95624 22.9917 6.17504C23.2105 6.39383 23.3334 6.69058 23.3334 6.99999C23.3334 7.30941 23.2105 7.60616 22.9917 7.82495C22.7729 8.04375 22.4762 8.16666 22.1667 8.16666H5.83341C5.524 8.16666 5.22725 8.04375 5.00846 7.82495C4.78966 7.60616 4.66675 7.30941 4.66675 6.99999ZM4.66675 14C4.66675 13.6906 4.78966 13.3938 5.00846 13.175C5.22725 12.9562 5.524 12.8333 5.83341 12.8333H22.1667C22.4762 12.8333 22.7729 12.9562 22.9917 13.175C23.2105 13.3938 23.3334 13.6906 23.3334 14C23.3334 14.3094 23.2105 14.6062 22.9917 14.825C22.7729 15.0437 22.4762 15.1667 22.1667 15.1667H5.83341C5.524 15.1667 5.22725 15.0437 5.00846 14.825C4.78966 14.6062 4.66675 14.3094 4.66675 14ZM5.83341 19.8333C5.524 19.8333 5.22725 19.9562 5.00846 20.175C4.78966 20.3938 4.66675 20.6906 4.66675 21C4.66675 21.3094 4.78966 21.6062 5.00846 21.825C5.22725 22.0437 5.524 22.1667 5.83341 22.1667H22.1667C22.4762 22.1667 22.7729 22.0437 22.9917 21.825C23.2105 21.6062 23.3334 21.3094 23.3334 21C23.3334 20.6906 23.2105 20.3938 22.9917 20.175C22.7729 19.9562 22.4762 19.8333 22.1667 19.8333H5.83341Z" fill="#100804"/>
</svg>
