<svg xmlns="http://www.w3.org/2000/svg" aria-hidden="true" style="position:absolute;width:0;height:0;overflow:hidden">
  <defs>
    <symbol id="icon-facebook" viewBox="0 0 32 32">
      <path d="M32 16.04C32 7.186 24.832 0 16 0S0 7.186 0 16.04c0 7.763 5.504 14.228 12.8 15.719V20.852H9.6V16.04h3.2v-4.01c0-3.096 2.512-5.614 5.6-5.614h4v4.812h-3.2c-.88 0-1.6.722-1.6 1.604v3.208h4.8v4.812h-4.8V32c8.08-.802 14.4-7.635 14.4-15.96z"/>
    </symbol>
    <symbol id="icon-instagram" viewBox="0 0 32 32">
      <path d="M9.28 0h13.44C27.84 0 32 4.16 32 9.28v13.44A9.281 9.281 0 0 1 22.72 32H9.28C4.16 32 0 27.84 0 22.72V9.28A9.281 9.281 0 0 1 9.28 0zm-.32 3.2A5.76 5.76 0 0 0 3.2 8.96v14.08a5.756 5.756 0 0 0 5.76 5.76h14.08a5.76 5.76 0 0 0 5.76-5.76V8.96a5.756 5.756 0 0 0-5.76-5.76H8.96zM24.4 5.6a2 2 0 1 1-.001 4.001A2 2 0 0 1 24.4 5.6zM16 8a8 8 0 1 1 0 16 8 8 0 0 1 0-16zm0 3.2a4.8 4.8 0 1 0 0 9.6 4.8 4.8 0 0 0 0-9.6z"/>
    </symbol>
    <symbol id="icon-twit" viewBox="0 0 36 32">
      <path d="M26.369 0h4.656l-10.17 11.816 11.966 16.081h-9.368l-7.343-9.751-8.392 9.751h-4.66l10.877-12.643L2.461.001h9.606l6.627 8.911 7.674-8.914zm-1.637 25.066h2.581L10.659 2.685H7.892l16.841 22.381z"/>
    </symbol>
    <symbol id="icon-arrow-left" viewBox="0 0 33 32">
      <path d="M11.331 16.724l11.146 10.62c0.186 0.177 0.433 0.276 0.69 0.276s0.504-0.099 0.69-0.276l0.012-0.012c0.090-0.086 0.163-0.189 0.212-0.304s0.075-0.238 0.075-0.363-0.025-0.248-0.075-0.363c-0.049-0.115-0.121-0.218-0.212-0.304l-10.496-10 10.496-9.996c0.090-0.086 0.163-0.189 0.212-0.304s0.075-0.238 0.075-0.363c0-0.125-0.025-0.248-0.075-0.363s-0.121-0.218-0.212-0.304l-0.012-0.012c-0.186-0.177-0.433-0.276-0.69-0.276s-0.504 0.099-0.69 0.276l-11.146 10.62c-0.098 0.093-0.176 0.206-0.229 0.33s-0.081 0.258-0.081 0.394c0 0.135 0.027 0.269 0.081 0.394s0.131 0.237 0.229 0.33z"></path>
    </symbol>
  </defs>
</svg>
