<svg width="26" height="29" viewBox="0 0 26 29" fill="none" xmlns="http://www.w3.org/2000/svg">
<g clip-path="url(#clip0_235_193)">
<path d="M12.1426 13.8253L0.113525 26.5469C0.24861 27.0301 0.491362 27.4758 0.823225 27.8498C1.15509 28.2238 1.56727 28.5163 2.02828 28.7049C2.48928 28.8934 2.98689 28.9731 3.48307 28.9378C3.97926 28.9025 4.46088 28.7531 4.89111 28.5012L18.4261 20.7199L12.1426 13.8253Z" fill="#EA4335"/>
<path d="M24.3059 11.6629L18.453 8.27884L11.8647 14.1147L18.4798 20.7017L24.2882 17.3539C24.8027 17.0819 25.2337 16.673 25.5344 16.1714C25.8352 15.6698 25.9941 15.0947 25.9941 14.5084C25.9941 13.9221 25.8352 13.3469 25.5344 12.8453C25.2337 12.3437 24.8027 11.9348 24.2882 11.6628L24.3059 11.6629Z" fill="#FBBC04"/>
<path d="M0.113499 2.4068C0.0408322 2.67814 0.00463867 2.95811 0.00589078 3.23919V25.7144C0.00660831 25.9954 0.0427684 26.2751 0.113499 26.5469L12.5549 14.1511L0.113499 2.4068Z" fill="#4285F4"/>
<path d="M12.2322 14.4768L18.453 8.27894L4.93598 0.461444C4.42741 0.160808 3.849 0.00159097 3.25964 6.28473e-06C1.79708 -0.00286297 0.511269 0.976989 0.113525 2.39778L12.2322 14.4768Z" fill="#22A044"/>
</g>
<defs>
<clipPath id="clip0_235_193">
<rect width="26" height="29" fill="white"/>
</clipPath>
</defs>
</svg>
