<svg xmlns="http://www.w3.org/2000/svg" aria-hidden="true" style="position:absolute;width:0;height:0;overflow:hidden">
  <defs>
    <symbol id="icon-arrow-down" viewBox="0 0 41 32">
      <path d="M3.349 1.472C3.854.939 4.539.64 5.254.64s1.4.299 1.905.832L20.496 15.54 33.833 1.472c.508-.518 1.189-.804 1.895-.798s1.382.305 1.882.832c.499.527.783 1.24.789 1.985s-.265 1.463-.756 1.999L22.401 21.567c-.505.533-1.191.832-1.905.832s-1.4-.299-1.905-.832L3.349 5.49c-.505-.533-.789-1.256-.789-2.009s.284-1.476.789-2.009z"/>
    </symbol>
    <symbol id="icon-arrow-left" viewBox="0 0 28 32">
      <path d="M22.24.657c.444.421.693.992.693 1.587s-.249 1.166-.693 1.587L10.517 14.946 22.24 26.061c.431.423.67.991.665 1.579s-.255 1.152-.694 1.568c-.439.416-1.033.652-1.654.657s-1.219-.221-1.666-.63L5.493 16.533c-.444-.421-.693-.992-.693-1.588s.249-1.166.693-1.587L18.891.656c.444-.421 1.046-.657 1.674-.657s1.23.236 1.674.657z"/>
    </symbol>
    <symbol id="icon-burgeg-icon" viewBox="0 0 36 32">
      <path d="M1.185 3.556a2.073 2.073 0 0 1 2.074-2.074h29.037a2.073 2.073 0 0 1 1.467 3.541 2.073 2.073 0 0 1-1.467.607H3.259a2.075 2.075 0 0 1-2.075-2.074zm0 12.444a2.073 2.073 0 0 1 2.074-2.074h29.037A2.071 2.071 0 0 1 34.37 16a2.075 2.075 0 0 1-2.074 2.075H3.259A2.076 2.076 0 0 1 1.184 16zm2.074 10.37a2.075 2.075 0 1 0-.001 4.148h29.037a2.073 2.073 0 0 0 1.467-3.541 2.073 2.073 0 0 0-1.467-.607H3.258z"/>
    </symbol>
    <symbol id="icon-close-icon" viewBox="0 0 32 32">
      <path d="M.763.763a1.75 1.75 0 0 1 2.474 0l28 28a1.758 1.758 0 0 1 .429 1.935 1.75 1.75 0 0 1-2.902.537l-28-28a1.75 1.75 0 0 1 0-2.474z"/>
      <path d="M31.236.763a1.75 1.75 0 0 1 0 2.474l-28 28a1.752 1.752 0 0 1-2.474-2.474l28-28a1.75 1.75 0 0 1 2.474 0z"/>
    </symbol>
    <symbol id="icon-facebook-icon" viewBox="0 0 32 32">
      <path d="M32 16.04C32 7.186 24.832 0 16 0S0 7.186 0 16.04c0 7.763 5.504 14.228 12.8 15.719V20.852H9.6V16.04h3.2v-4.01c0-3.096 2.512-5.614 5.6-5.614h4v4.812h-3.2c-.88 0-1.6.722-1.6 1.604v3.208h4.8v4.812h-4.8V32c8.08-.802 14.4-7.635 14.4-15.96z"/>
    </symbol>
    <symbol id="icon-insta-icon" viewBox="0 0 32 32">
      <path d="M9.28 0h13.44C27.84 0 32 4.16 32 9.28v13.44A9.281 9.281 0 0 1 22.72 32H9.28C4.16 32 0 27.84 0 22.72V9.28A9.281 9.281 0 0 1 9.28 0zm-.32 3.2A5.76 5.76 0 0 0 3.2 8.96v14.08a5.756 5.756 0 0 0 5.76 5.76h14.08a5.76 5.76 0 0 0 5.76-5.76V8.96a5.756 5.756 0 0 0-5.76-5.76H8.96zM24.4 5.6a2 2 0 1 1-.001 4.001A2 2 0 0 1 24.4 5.6zM16 8a8 8 0 1 1 0 16 8 8 0 0 1 0-16zm0 3.2a4.8 4.8 0 1 0 0 9.6 4.8 4.8 0 0 0 0-9.6z"/>
    </symbol>
    <symbol id="icon-logos_google-play-icon" viewBox="0 0 29 32">
      <path fill="#ea4335" d="M13.645 15.255.127 29.293c.152.533.425 1.025.798 1.438a3.676 3.676 0 0 0 2.989 1.201 3.687 3.687 0 0 0 1.582-.482l15.21-8.586-7.061-7.608z" style="fill:var(--color1, #ea4335)"/>
      <path fill="#fbbc04" d="m27.314 12.869-6.577-3.734-7.404 6.44 7.434 7.268 6.527-3.694c.578-.3 1.063-.751 1.401-1.305a3.522 3.522 0 0 0-1.401-4.975h.02z" style="fill:var(--color2, #fbbc04)"/>
      <path fill="#4285f4" d="M.127 2.656a3.43 3.43 0 0 0-.121.918v24.8c.001.31.041.619.121.919l13.981-13.678L.127 2.656z" style="fill:var(--color3, #4285f4)"/>
      <path fill="#22a044" d="m13.746 15.974 6.991-6.839L5.547.509A3.773 3.773 0 0 0 3.663 0 3.661 3.661 0 0 0 .128 2.646l13.618 13.329z" style="fill:var(--color4, #22a044)"/>
    </symbol>
    <symbol id="icon-twit-icon" viewBox="0 0 35 32">
      <path d="M27.424 0h5.34L21.098 13.554 34.823 32H24.078l-8.422-11.185L6.03 32H.685l12.477-14.502L.001.002H11.02l7.601 10.222L27.424 0zm-1.878 28.752h2.96L9.403 3.08H6.229l19.317 25.672z"/>
    </symbol>
  </defs>
</svg>
